<svg xmlns="http://www.w3.org/2000/svg" id="Layer_2" data-name="Layer 2" viewBox="0 0 175 50"><defs><style>.cls-1{fill:#fff}</style></defs><path d="M128.59 20.93a8.9 8.9 0 0 0-5-1.87l-.25.29a11.9 11.9 0 0 1 4.47 2.26 14.9 14.9 0 0 0-9-1.67 1.45 1.45 0 0 0-.3 0 14.12 14.12 0 0 0-4.08 1.13c-.66.29-1.06.5-1.06.5a11.86 11.86 0 0 1 4.63-2.29l-.18-.22a8.94 8.94 0 0 0-5 1.87 23.75 23.75 0 0 0-2.58 10.38A6.51 6.51 0 0 0 115.7 34s.66-.79 1.2-1.48a5.59 5.59 0 0 1-3.14-2.1 5.77 5.77 0 0 0 .5.31h.08l.16.09a12.5 12.5 0 0 0 1.31.61 14 14 0 0 0 2.64.77 12.67 12.67 0 0 0 4.65 0 13.38 13.38 0 0 0 2.6-.78 9.64 9.64 0 0 0 2.06-1.06 5.68 5.68 0 0 1-3.25 2.12c.54.67 1.19 1.44 1.19 1.44a6.6 6.6 0 0 0 5.47-2.69 23.75 23.75 0 0 0-2.58-10.3Zm-11.24 8.71a2 2 0 0 1 0-3.95 2 2 0 0 1 0 3.95Zm6.55 0a2 2 0 1 1 1.83-2 1.89 1.89 0 0 1-1.83 2ZM13.43 33.2H10v-8.13H8.32v-2.8H10v-1.68c0-2.28 1-3.64 3.7-3.64H16v2.8h-1.43c-1.06 0-1.13.39-1.13 1.12v1.4H16l-.3 2.8h-2.27ZM48 17h-7.22a4.9 4.9 0 0 0-4.9 4.9V29a4.9 4.9 0 0 0 4.9 4.9H48a4.9 4.9 0 0 0 4.9-4.9v-7.15A4.9 4.9 0 0 0 48 17Zm3.34 12.2A3.26 3.26 0 0 1 48 32.41h-7.3a3.26 3.26 0 0 1-3.26-3.26v-7.34a3.26 3.26 0 0 1 3.26-3.26H48a3.26 3.26 0 0 1 3.26 3.26Z" class="cls-1"/><path d="M44.37 21.07a4.41 4.41 0 1 0 4.41 4.41 4.42 4.42 0 0 0-4.41-4.41Zm0 7.27a2.86 2.86 0 1 1 2.86-2.86 2.86 2.86 0 0 1-2.86 2.86Z" class="cls-1"/><circle cx="48.92" cy="20.9" r="1.03" class="cls-1"/><path d="M88.07 20.94a11.15 11.15 0 0 0 2.11-.8A3.09 3.09 0 0 1 88.75 22a8.12 8.12 0 0 0 1.88-.5A6.41 6.41 0 0 1 89 23.2a9.51 9.51 0 0 1-6.12 9.4 9.67 9.67 0 0 1-8.56-.91 6.41 6.41 0 0 0 4.92-1.41A3.27 3.27 0 0 1 76.12 28a3 3 0 0 0 1.43-.05l-.55-.23a3.48 3.48 0 0 1-2.08-3.17 4.24 4.24 0 0 0 1.51.44 3.37 3.37 0 0 1-1-4.5A9.72 9.72 0 0 0 82.32 24a3.46 3.46 0 0 1 2-3.87 3.41 3.41 0 0 1 3.79.8M167.48 21.68a4.35 4.35 0 0 0-.79-2 2.86 2.86 0 0 0-2-.85c-2.78-.2-7-.2-7-.2s-4.18 0-7 .2a2.86 2.86 0 0 0-2 .85 4.23 4.23 0 0 0-.79 2 29.94 29.94 0 0 0-.2 3.22v1.51a30.24 30.24 0 0 0 .2 3.23 4.23 4.23 0 0 0 .79 2 3.38 3.38 0 0 0 2.2.85c1.59.15 6.76.2 6.76.2s4.19 0 7-.21a2.84 2.84 0 0 0 2-.84 4.35 4.35 0 0 0 .79-2 30.24 30.24 0 0 0 .2-3.23V24.9a29.94 29.94 0 0 0-.16-3.22Zm-11.81 6.56v-5.59l5.38 2.81Z" class="cls-1"/></svg>