<?xml version="1.0" encoding="utf-8"?>
<svg viewBox="0 0 76 100" xmlns="http://www.w3.org/2000/svg" xmlns:bx="https://boxy-svg.com">
  <defs>
    <style>.cls-1{fill:#fff;}.cls-2{fill:#757976;}</style>
    <style bx:fonts="ADLaM Display">@import url(https://fonts.googleapis.com/css2?family=ADLaM+Display%3Aital%2Cwght%400%2C400&amp;display=swap);</style>
  </defs>
  <text style="fill: rgb(255, 255, 255); font-family: Arial, sans-serif; font-size: 4.3px; white-space: pre;" transform="matrix(4.10631799697876, 0, 0, 3.7907819747924805, -77.39277648925781, -110.58773803710938)" x="27.744" y="50.762">m</text>
  <text style="fill: rgb(255, 255, 255); font-family: Arial, sans-serif; font-size: 4.3px; white-space: pre;" transform="matrix(4.314733028411865, 0, 0, 3.861809015274048, -53.26087951660157, -110.10919189453125)" x="24.238" y="49.695">e</text>
  <text style="white-space: pre; fill: rgb(51, 51, 51); font-family: Arial, sans-serif; font-size: 4.3px;" x="27.744" y="50.762" transform="matrix(4.10631799697876, 0, 0, 3.7907819747924805, -77.18780517578125, -160.70751953125)">m</text>
  <text style="white-space: pre; fill: rgb(51, 51, 51); font-family: Arial, sans-serif; font-size: 4.3px;" x="24.238" y="49.695" transform="matrix(4.314733028411865, 0, 0, 3.861809015274048, -53.05590820312501, -160.22897338867188)">e</text>
  <text style="fill: rgb(255, 255, 255); font-family: 'ADLaM Display'; font-size: 4.3px; white-space: pre;" transform="matrix(3.580935001373291, 0, 0, 3.8917269706726074, -52.383495330810554, -102.30949401855469)" x="18.445" y="47.409">H</text>
  <text style="fill: rgb(255, 255, 255); font-family: Arial, sans-serif; font-size: 4.3px; white-space: pre;" transform="matrix(4.187043190002441, 0, 0, 3.8653900623321533, -104.19366455078125, -102.02919006347656)" x="31.098" y="47.561">o</text>
  <text style="fill: rgb(51, 51, 51); font-family: 'ADLaM Display'; font-size: 4.3px; white-space: pre;" transform="matrix(3.580935001373291, 0, 0, 3.8917269706726074, -52.17852401733399, -152.4292755126953)" x="18.445" y="47.409">H</text>
  <text style="white-space: pre; fill: rgb(51, 51, 51); font-family: Arial, sans-serif; font-size: 4.3px;" x="31.098" y="47.561" transform="matrix(4.187043190002441, 0, 0, 3.8653900623321533, -103.98869323730469, -152.1489715576172)">o</text>
</svg>