<svg xmlns="http://www.w3.org/2000/svg" viewBox="0 0 680 60"><defs><style>.cls-1{fill:#fff;}.cls-2{fill:#ff0706;}</style></defs><title>amanita-design-logo</title><g id="Layer_3" data-name="Layer 3"><rect width="680" height="60"/></g><g id="Layer_2" data-name="Layer 2"><path class="cls-1" d="M80.46,26.28h0a3.09,3.09,0,0,0-2.82,1.66l0,.09a.33.33,0,0,1-.06.12v0c0-.11-.08-.23-.13-.34a2.34,2.34,0,0,0-1.58-1.39,3.08,3.08,0,0,0-.75-.1,3.27,3.27,0,0,0-2.74,1.47l-.16.25a2.17,2.17,0,0,1-.06-.57,1.63,1.63,0,0,0-.19-.85l0,0h0a4.24,4.24,0,0,0-.86-.08,3.14,3.14,0,0,0-.93.12l0,0,0,0a2.35,2.35,0,0,0-.08,1.06c.12,1.51.12,3.05.12,4.54v2.82a2.62,2.62,0,0,0,.08.71c.1.3.23.5.59.5h0c.33,0,.66,0,1-.07l.39,0h.06l0-.05a1,1,0,0,0,.12-.6v-3a11,11,0,0,1,.32-2.66,2.74,2.74,0,0,1,.55-1.12,1.19,1.19,0,0,1,1.9.11,3.12,3.12,0,0,1,.41,1,15.92,15.92,0,0,1,.15,4.41v.14a1.48,1.48,0,0,1,0,.21,8.62,8.62,0,0,0,0,1.44v.06l.06,0a3.22,3.22,0,0,0,1,.2,2.11,2.11,0,0,0,.93-.21l0,0,0,0a1.25,1.25,0,0,0,.09-.57V31.93a9.18,9.18,0,0,1,.07-1.38,4.17,4.17,0,0,1,.54-1.63,1.26,1.26,0,0,1,.9-.68l.27,0a1.34,1.34,0,0,1,1.35,1.07,5.48,5.48,0,0,1,.18,1.89c-.11,1.53-.1,3-.08,4.29v.08a1,1,0,0,0,.14.58l0,0h.06l.35,0c.22,0,.45,0,.68,0a3.84,3.84,0,0,0,.71-.06h0l0,0a2,2,0,0,0,.23-.91v-.48c0-.4,0-.83,0-1.24a25,25,0,0,0,0-3.51,5.24,5.24,0,0,0-.64-2.45,2.28,2.28,0,0,0-1.41-1.13,3.58,3.58,0,0,0-.87-.11Z"/><path class="cls-1" d="M175,26.28h-.17a3.71,3.71,0,0,0-3.42,2.1,6.5,6.5,0,0,0-.62,2.29,6.89,6.89,0,0,0,.39,3.28,3.47,3.47,0,0,0,3.32,2.4,4.59,4.59,0,0,0,.73-.06,2.9,2.9,0,0,0,2.09-1.38l.05-.09,0,0a6.41,6.41,0,0,1-.15,2.32,2.38,2.38,0,0,1-.76,1.15,2.42,2.42,0,0,1-1.5.5,2.74,2.74,0,0,1-2.13-1,3.9,3.9,0,0,1-.44-.76l0-.09-.1,0-.31.15c-.23.11-.44.21-.65.33a1,1,0,0,0-.58.59,1.07,1.07,0,0,0,.23.83,3.41,3.41,0,0,0,1.64,1.35,5.85,5.85,0,0,0,2.17.41,8,8,0,0,0,1-.07,4.42,4.42,0,0,0,3.76-3.34,9.34,9.34,0,0,0,.19-1.84c0-1.79,0-3.62,0-5.38,0-.86,0-1.75,0-2.62a1.43,1.43,0,0,0-.15-.74l0,0h-.06l-.58,0c-.74,0-1,.24-1.35,1.05l-.06-.09a.22.22,0,0,0,0-.08,2.59,2.59,0,0,0-1.46-1,3.53,3.53,0,0,0-.95-.12Zm.3,8.25a2.16,2.16,0,0,1-1.63-.8,3,3,0,0,1-.64-1.67,4.86,4.86,0,0,1,.18-2.27,2.35,2.35,0,0,1,1.14-1.46,2,2,0,0,1,.93-.23,2.14,2.14,0,0,1,2,1.68,6.41,6.41,0,0,1,.08,1.27v.19h0a5.72,5.72,0,0,1-.09,1.45,2.31,2.31,0,0,1-.43,1,2,2,0,0,1-1.59.83Z"/><path class="cls-1" d="M138.33,23.87H136a.49.49,0,0,0-.3.07l0,0v0c-.1.46-.1,11.61,0,12v0l0,0a.38.38,0,0,0,.27.09h3.1a9.12,9.12,0,0,0,2.23-.25,4.8,4.8,0,0,0,3.41-2.66,7.14,7.14,0,0,0,.73-4.26,6,6,0,0,0-1.62-3.39,5.7,5.7,0,0,0-4.14-1.77c-.41,0-.85,0-1.38,0Zm.06,10.37c-.39,0-.46-.08-.47-.52s0-.63,0-1c0-.18,0-.36,0-.57a17.46,17.46,0,0,0-.09-2c0-.32-.06-.66-.08-1s0-.45-.05-.67a7.08,7.08,0,0,1,0-2s0-.09,0-.13v-.08c.08-.45.17-.53.62-.59h.13l.37,0a2.21,2.21,0,0,0,.37,0,7.4,7.4,0,0,1,1.27.17,2.8,2.8,0,0,1,2.16,1.85,5.57,5.57,0,0,1,.19,3.62,3.42,3.42,0,0,1-3.11,2.7c-.42,0-.86.07-1.29.07Z"/><path class="cls-1" d="M63.56,23.87H61.72a.62.62,0,0,0-.6.38h0a6.72,6.72,0,0,0-.28.67c-.26.71-.52,1.44-.77,2.15l-.3.85-.52,1.48c-.73,2.07-1.47,4.13-2.2,6.2a.11.11,0,0,1,0,.07.4.4,0,0,0,0,.41l0,0h0a6.21,6.21,0,0,0,1.19.14,3.14,3.14,0,0,0,.95-.15l.05,0v0l0-.12c0-.1.07-.19.11-.3s.13-.39.2-.58c.18-.5.36-1,.52-1.55a.6.6,0,0,1,.59-.46h2.61c.39,0,.78,0,1.19.09l.38,0,.73,2.1.28.8v0h0a2.57,2.57,0,0,0,.9.15,7.71,7.71,0,0,0,.84-.07l.53,0h.1v-.1a1.6,1.6,0,0,0-.1-.43l0-.07-1.59-4.5-2.12-6c-.09-.25-.19-.51-.31-.78a.66.66,0,0,0-.66-.43ZM61,31.12c.19-.59.36-1.18.52-1.76A26.45,26.45,0,0,1,62.6,26c.06.21.12.43.18.63.19.65.36,1.27.55,1.87s.41,1.25.61,1.86l.24.73c0,.08-.09.09-.17.09H61.13l-.11,0Z"/><path class="cls-1" d="M89.65,26.28h-.17a3.79,3.79,0,0,0-3.63,2.46,6.77,6.77,0,0,0-.36,4,4.67,4.67,0,0,0,3.33,3.64,3.5,3.5,0,0,0,1,.17,2.26,2.26,0,0,0,2.08-1.45A.37.37,0,0,0,92,35l.06-.12c0,.14,0,.29.06.45a3.21,3.21,0,0,0,.14.78l0,.06h.06a4.92,4.92,0,0,0,1,.11,3,3,0,0,0,1-.14l0,0v0a2.29,2.29,0,0,0,.08-.76v-.19c0-.56,0-1.11-.07-1.66a17.82,17.82,0,0,1,0-1.94c0-.39,0-.78,0-1.16,0-.18,0-.35,0-.52V27.28a.81.81,0,0,0-.26-.73h0a1,1,0,0,0-.35-.06h-.57a.74.74,0,0,0-.34.07l0,0v0a2.64,2.64,0,0,0-.18.38,1.82,1.82,0,0,1-.34.59,2.59,2.59,0,0,0-.78-.83,3.21,3.21,0,0,0-1.74-.46Zm.28,8.33A2.23,2.23,0,0,1,88,33.31a3.58,3.58,0,0,1-.23-.68,5,5,0,0,1,.14-3,2.18,2.18,0,0,1,1.33-1.41,1.94,1.94,0,0,1,.71-.13,2.06,2.06,0,0,1,1.76,1.06A2.13,2.13,0,0,1,92,30.23v1.05c0,.11,0,.23,0,.34A4.56,4.56,0,0,1,91.91,33a2.08,2.08,0,0,1-1.56,1.59,1.52,1.52,0,0,1-.42.06Z"/><path class="cls-1" d="M123.27,26.27l-.44,0a3.75,3.75,0,0,0-3.17,2,5.6,5.6,0,0,0-.66,2.34c0,.11,0,.22,0,.32a5.75,5.75,0,0,0,.08,1.85,4.83,4.83,0,0,0,3.37,3.62,3.28,3.28,0,0,0,1,.16,2.27,2.27,0,0,0,2.07-1.42.61.61,0,0,0,.05-.12l.06-.12,0,.11.09.71c.06.41.2.53.61.55h1.1a.69.69,0,0,0,.5-.22l0,0v0a5.1,5.1,0,0,0,0-1.1v-.27c0-.38,0-.76-.07-1.14s-.07-.91-.06-1.36c0-1.11,0-2.23,0-3.32V27.33a1,1,0,0,0-.26-.78l0,0h0a4.89,4.89,0,0,0-.54,0,5.07,5.07,0,0,0-.66,0h0l0,0a2.5,2.5,0,0,0-.19.41,2.49,2.49,0,0,1-.33.6.47.47,0,0,1-.09-.12,2.43,2.43,0,0,0-1.51-1.08,3.21,3.21,0,0,0-.9-.12Zm.25,8.34a2.3,2.3,0,0,1-2-1.46,5.27,5.27,0,0,1,0-3.56,2.25,2.25,0,0,1,1.07-1.27,2.1,2.1,0,0,1,1-.25,2.14,2.14,0,0,1,2,1.55,2.59,2.59,0,0,1,.11.79c0,.21,0,.42,0,.62v.55a4.45,4.45,0,0,1-.11,1.36,2.09,2.09,0,0,1-1.59,1.62,1.74,1.74,0,0,1-.39,0Z"/><path class="cls-1" d="M151.44,26.28a4.05,4.05,0,0,0-3.71,2.25,6.43,6.43,0,0,0-.31,5.15A3.83,3.83,0,0,0,149.57,36a5,5,0,0,0,2.07.47,4.7,4.7,0,0,0,1.05-.12,3.28,3.28,0,0,0,2.53-2.18v0a.48.48,0,0,0,0-.46l0,0h0l-.23-.08c-.19-.06-.38-.12-.59-.17l-.26-.09a1.63,1.63,0,0,0-.54-.12h-.1l0,0a1,1,0,0,0-.21.37.35.35,0,0,1-.06.14,1.42,1.42,0,0,1-1.26.91,1.77,1.77,0,0,1-.82-.22,3.35,3.35,0,0,1-1.62-1.93,1.25,1.25,0,0,1-.1-.67h5.9l0-.05a1.11,1.11,0,0,0,.15-.68V31a9.62,9.62,0,0,0-.44-2.47l0-.06a2.76,2.76,0,0,0-1.37-1.68,3.7,3.7,0,0,0-1.26-.44,5.43,5.43,0,0,0-.88-.08Zm-2.06,4a1.4,1.4,0,0,1,.16-.66,2.25,2.25,0,0,1,2-1.38,1.69,1.69,0,0,1,.38,0,1.5,1.5,0,0,1,1,.73,1.65,1.65,0,0,1,.16,1.27Z"/><path class="cls-1" d="M187.09,26.28v0h0a3,3,0,0,0-2.09.89,3,3,0,0,0-.65.9,1.88,1.88,0,0,1,0-.47c0-.09,0-.17,0-.26a.78.78,0,0,0-.72-.8,2.57,2.57,0,0,0-.5-.05l-.47,0a.42.42,0,0,0-.33.24v.11c0,.06,0,.12,0,.19v2.43c0,.83,0,1.66,0,2.48v3.55a.65.65,0,0,0,.24.64l0,0h1a7.25,7.25,0,0,0,.86-.05h0l0,0a.91.91,0,0,0,.12-.53v-.12c0-.61,0-1.23,0-1.83s-.06-.94-.06-1.41a7.86,7.86,0,0,1,.36-2.69,1.81,1.81,0,0,1,.57-.86,1.69,1.69,0,0,1,1.08-.41,1.31,1.31,0,0,1,1.28.94,3.2,3.2,0,0,1,.19.69,12.3,12.3,0,0,1,.06,3.09v.17c-.05.84-.06,1.7-.05,2.56a.57.57,0,0,0,.16.42h.05a6.68,6.68,0,0,0,1.14.15,2,2,0,0,0,.84-.19l.06,0V36a.31.31,0,0,1,0-.1c0-.07,0-.13,0-.19V29.19a2.55,2.55,0,0,0-.06-.59,2.81,2.81,0,0,0-2-2.18,3.65,3.65,0,0,0-1-.14Z"/><path class="cls-1" d="M101.72,26.29a2.91,2.91,0,0,0-2.32,1.13c-.13.16-.24.33-.37.51L99,28l0-.09c0-.23-.06-.44-.08-.65a.73.73,0,0,0-.62-.7,2.68,2.68,0,0,0-.59-.06,3.32,3.32,0,0,0-.43,0,.43.43,0,0,0-.32.15.5.5,0,0,0-.07.37,5.16,5.16,0,0,1,0,.79V35.4a1.34,1.34,0,0,0,.14.73l0,0h.06l.92,0a8,8,0,0,0,.88,0h0l0,0a1.43,1.43,0,0,0,.18-1s0-.07,0-.11c0-.26,0-.53-.05-.79a19.82,19.82,0,0,1,0-3.36,4.28,4.28,0,0,1,.61-2,1.62,1.62,0,0,1,1.41-.68h0a1.37,1.37,0,0,1,1.26,1,6.79,6.79,0,0,1,.27,2.39l0,.4c0,.13,0,.25,0,.38s0,.41,0,.6a11.67,11.67,0,0,1-.07,1.32,5.44,5.44,0,0,0,0,.9,2.44,2.44,0,0,1,0,.27.79.79,0,0,0,.23.6l0,0h0l.53.05a4.62,4.62,0,0,0,.64.06,1.51,1.51,0,0,0,.75-.17h0l0,0a1,1,0,0,0,.09-.45V34.17c0-1.47,0-3,0-4.48a5,5,0,0,0-.17-1.32,2.84,2.84,0,0,0-2.43-2,3.12,3.12,0,0,0-.52,0Z"/><path class="cls-1" d="M161.07,26.24a5,5,0,0,0-2.66.78,3.43,3.43,0,0,0-1,1,2.33,2.33,0,0,0-.28,2,2.44,2.44,0,0,0,1.33,1.6,8.66,8.66,0,0,0,1.15.37l.32.08a12.21,12.21,0,0,1,1.18.34,1.89,1.89,0,0,1,.81.47,1.16,1.16,0,0,1,.33,1,1,1,0,0,1-.54.68,1.92,1.92,0,0,1-.95.24,2,2,0,0,1-1.86-1.1l0-.05a.5.5,0,0,0-.27-.32h-.07l-.21.05-.61.16-.27.09a.69.69,0,0,0-.48.94,1.35,1.35,0,0,0,.14.36,2.53,2.53,0,0,0,1.3,1.19,4.43,4.43,0,0,0,1.79.34,7.28,7.28,0,0,0,.78,0,5,5,0,0,0,2.69-1.06,2.17,2.17,0,0,0,.87-2.41,2.25,2.25,0,0,0-1.34-1.68l-.4-.17-.67-.26-.3-.12a12.56,12.56,0,0,1-1.52-.64,2.39,2.39,0,0,1-.67-.45.73.73,0,0,1-.07-1.11,1.31,1.31,0,0,1,1.07-.5,1.56,1.56,0,0,1,.6.11,1.69,1.69,0,0,1,1,1.16l0,.07h.29a6.4,6.4,0,0,0,1.69-.3l.08,0v-.08a2.57,2.57,0,0,0-1.87-2.52,5.29,5.29,0,0,0-1.34-.17Z"/><path class="cls-1" d="M114.73,24.23h-.08l-.32,0-.68,0a2.15,2.15,0,0,0-1.05.26l0,0v.05a2.82,2.82,0,0,0,0,.93,1.41,1.41,0,0,1,0,.54.77.77,0,0,0,0,.15.25.25,0,0,1-.28.24h-.59a.43.43,0,0,0-.47.4,1.09,1.09,0,0,0,0,.18,3.11,3.11,0,0,0,0,1.1v0l0,0a.57.57,0,0,0,.29.09.83.83,0,0,0,.3-.07l.09,0a1,1,0,0,1,.26-.05c.14,0,.31,0,.42.38a1.57,1.57,0,0,1,.1.42,18.66,18.66,0,0,1,0,2.28c0,.16,0,.32-.05.47a10.84,10.84,0,0,0-.1,1.89,2.89,2.89,0,0,0,2.23,2.79,4,4,0,0,0,.91.11,4.15,4.15,0,0,0,1.56-.32l.13-.05a1,1,0,0,0,.54-.35l0,0v0c0-.2-.09-.42-.13-.63a10.62,10.62,0,0,0-.25-1l0-.12-.11.06-.18.1-.35.19a2.53,2.53,0,0,1-.56.23,1.76,1.76,0,0,1-.31,0,.86.86,0,0,1-.8-.52,3.34,3.34,0,0,1-.2-.51,5.65,5.65,0,0,1-.2-1.57V31.5a10.07,10.07,0,0,0-.08-1.73,2.88,2.88,0,0,1,0-.6.7.7,0,0,1,.63-.74,3,3,0,0,1,.74-.09,3.77,3.77,0,0,1,.66.06l.22,0a.67.67,0,0,0,.53-.25l0,0v0a4.91,4.91,0,0,0,0-1.38v0l0,0a.68.68,0,0,0-.47-.17h-1.24a2.11,2.11,0,0,1-.36,0,.63.63,0,0,1-.61-.68c0-.14,0-.28,0-.41s0-.21,0-.32v-.22a1.38,1.38,0,0,0,0-.53l0-.08Z"/><path class="cls-1" d="M167.36,26.46h0a3.6,3.6,0,0,0-.78.08h0l0,0a.85.85,0,0,0-.11.51v1.31a26.07,26.07,0,0,1-.08,2.79c-.08.76-.13,1.54-.18,2.3v.2a8.47,8.47,0,0,0,.09,2c.05.28.15.53.52.54h.69a2.91,2.91,0,0,0,1.13-.19l.06,0V36c.07-.56.06-8.93,0-9.43v-.08h-.09l-.55,0-.61,0Z"/><path class="cls-1" d="M108.27,26.46h0a3.77,3.77,0,0,0-.79.08h0l0,0,0,.07a.26.26,0,0,0-.05.12c0,.18,0,.33,0,.47,0,.34,0,.67,0,1a35,35,0,0,1-.14,4,26.63,26.63,0,0,0-.09,3,2.15,2.15,0,0,0,.12.7.46.46,0,0,0,.43.35h.75a2.6,2.6,0,0,0,1.1-.2l0,0V36s0-.06,0-.09a1.11,1.11,0,0,0,0-.19V26.89a.39.39,0,0,0-.17-.37l0,0h0l-.5,0-.58,0Z"/><path class="cls-1" d="M108.48,22.12h0a1.24,1.24,0,0,0-1.34,1.33,1.61,1.61,0,0,0,.44,1.19,1.34,1.34,0,0,0,.92.38h0a1.37,1.37,0,0,0,1.43-1.4,1.52,1.52,0,0,0-.43-1.08,1.42,1.42,0,0,0-1-.42Z"/><path class="cls-1" d="M167.55,22.11v0h-.06a1.23,1.23,0,0,0-1.3,1.37A1.37,1.37,0,0,0,167.52,25h0a1.51,1.51,0,0,0,1.1-.45,1.39,1.39,0,0,0,.39-1,1.54,1.54,0,0,0-1.46-1.49Z"/><path class="cls-1" d="M420.46,26.28h0a3.09,3.09,0,0,0-2.82,1.66l0,.09a.33.33,0,0,1-.06.12v0c0-.11-.08-.23-.13-.34a2.34,2.34,0,0,0-1.58-1.39,3.08,3.08,0,0,0-.75-.1,3.27,3.27,0,0,0-2.74,1.47l-.16.25a2.17,2.17,0,0,1-.06-.57,1.63,1.63,0,0,0-.19-.85l0,0h-.05a4.24,4.24,0,0,0-.86-.08,3.14,3.14,0,0,0-.93.12l0,0,0,0a2.35,2.35,0,0,0-.08,1.06c.12,1.51.12,3.05.12,4.54v2.82a2.62,2.62,0,0,0,.08.71c.1.3.23.5.59.5h0c.33,0,.66,0,1-.07l.39,0h.06l0-.05a1,1,0,0,0,.12-.6v-3a11,11,0,0,1,.32-2.66,2.74,2.74,0,0,1,.55-1.12,1.19,1.19,0,0,1,1.9.11,3.12,3.12,0,0,1,.41,1,15.92,15.92,0,0,1,.15,4.41v.14a1.48,1.48,0,0,1,0,.21,8.62,8.62,0,0,0,0,1.44v.06l.06,0a3.22,3.22,0,0,0,1,.2,2.11,2.11,0,0,0,.93-.21l0,0,0,0a1.25,1.25,0,0,0,.09-.57V31.93a9.18,9.18,0,0,1,.07-1.38,4.17,4.17,0,0,1,.54-1.63,1.26,1.26,0,0,1,.9-.68l.27,0a1.34,1.34,0,0,1,1.35,1.07,5.48,5.48,0,0,1,.18,1.89c-.11,1.53-.1,3-.08,4.29v.08a1,1,0,0,0,.14.58l0,0h.06l.35,0c.22,0,.45,0,.68,0a3.84,3.84,0,0,0,.71-.06h0l0,0a2,2,0,0,0,.23-.91v-.48c0-.4,0-.83,0-1.24a25,25,0,0,0,.05-3.51,5.24,5.24,0,0,0-.64-2.45,2.28,2.28,0,0,0-1.41-1.13,3.58,3.58,0,0,0-.87-.11Z"/><path class="cls-1" d="M515,26.28h-.17a3.71,3.71,0,0,0-3.42,2.1,6.5,6.5,0,0,0-.62,2.29,6.89,6.89,0,0,0,.39,3.28,3.47,3.47,0,0,0,3.32,2.4,4.59,4.59,0,0,0,.73-.06,2.9,2.9,0,0,0,2.09-1.38l.05-.09,0,0a6.41,6.41,0,0,1-.15,2.32,2.38,2.38,0,0,1-.76,1.15,2.42,2.42,0,0,1-1.5.5,2.74,2.74,0,0,1-2.13-1,3.9,3.9,0,0,1-.44-.76l0-.09-.1,0-.31.15c-.23.11-.44.21-.65.33a1,1,0,0,0-.58.59,1.07,1.07,0,0,0,.23.83,3.41,3.41,0,0,0,1.64,1.35,5.85,5.85,0,0,0,2.17.41,8,8,0,0,0,1-.07,4.42,4.42,0,0,0,3.76-3.34,9.34,9.34,0,0,0,.19-1.84c0-1.79,0-3.62,0-5.38,0-.86,0-1.75,0-2.62a1.43,1.43,0,0,0-.15-.74l0,0h-.06l-.58,0c-.74,0-1,.24-1.35,1.05a.35.35,0,0,1-.06-.09.22.22,0,0,0-.05-.08,2.59,2.59,0,0,0-1.46-1,3.53,3.53,0,0,0-1-.12Zm.3,8.25a2.16,2.16,0,0,1-1.63-.8,3,3,0,0,1-.64-1.67,4.86,4.86,0,0,1,.18-2.27,2.35,2.35,0,0,1,1.14-1.46,2,2,0,0,1,.93-.23,2.14,2.14,0,0,1,2.05,1.68,6.41,6.41,0,0,1,.08,1.27v.19h0a5.72,5.72,0,0,1-.09,1.45,2.31,2.31,0,0,1-.43,1,2,2,0,0,1-1.59.83Z"/><path class="cls-1" d="M478.33,23.87H476a.49.49,0,0,0-.3.07l0,0v0c-.1.46-.1,11.61,0,12v0l0,0a.38.38,0,0,0,.27.09h3.1a9.12,9.12,0,0,0,2.23-.25,4.8,4.8,0,0,0,3.41-2.66,7.14,7.14,0,0,0,.73-4.26,6,6,0,0,0-1.62-3.39,5.7,5.7,0,0,0-4.14-1.77c-.41,0-.85,0-1.38,0Zm.06,10.37c-.39,0-.46-.08-.47-.52s0-.63,0-1c0-.18,0-.36,0-.57a17.46,17.46,0,0,0-.09-2c0-.32-.06-.66-.08-1s0-.45-.05-.67a7.08,7.08,0,0,1,0-2s0-.09,0-.13v-.08c.08-.45.17-.53.62-.59h.13l.37,0a2.21,2.21,0,0,0,.37,0,7.4,7.4,0,0,1,1.27.17,2.8,2.8,0,0,1,2.16,1.85,5.57,5.57,0,0,1,.19,3.62,3.42,3.42,0,0,1-3.11,2.7c-.42,0-.86.07-1.29.07Z"/><path class="cls-1" d="M403.56,23.87h-1.84a.62.62,0,0,0-.6.38h0a6.72,6.72,0,0,0-.28.67c-.26.71-.52,1.44-.77,2.15l-.3.85-.52,1.48c-.73,2.07-1.47,4.13-2.2,6.2a.11.11,0,0,1,0,.07.4.4,0,0,0,0,.41l0,0h0a6.21,6.21,0,0,0,1.19.14,3.14,3.14,0,0,0,1-.15l0,0v0l.05-.12c0-.1.07-.19.11-.3s.13-.39.2-.58c.18-.5.36-1,.52-1.55a.6.6,0,0,1,.59-.46h2.61c.39,0,.78,0,1.19.09l.38,0,.73,2.1.28.8v0H406a2.57,2.57,0,0,0,.9.15,7.71,7.71,0,0,0,.84-.07l.53,0h.1v-.1a1.6,1.6,0,0,0-.1-.43l0-.07-1.59-4.5-2.12-6c-.09-.25-.19-.51-.31-.78a.66.66,0,0,0-.66-.43ZM401,31.12c.19-.59.36-1.18.52-1.76A26.45,26.45,0,0,1,402.6,26l.18.63c.19.65.36,1.27.55,1.87s.41,1.25.61,1.86l.24.73c0,.08-.09.09-.17.09h-2.88l-.11,0Z"/><path class="cls-1" d="M429.65,26.28h-.17a3.79,3.79,0,0,0-3.63,2.46,6.77,6.77,0,0,0-.36,4,4.67,4.67,0,0,0,3.33,3.64,3.5,3.5,0,0,0,1,.17,2.26,2.26,0,0,0,2.08-1.45.37.37,0,0,0,0-.11l.06-.12c0,.14,0,.29.06.45a3.21,3.21,0,0,0,.14.78l0,.06h.06a4.92,4.92,0,0,0,1,.11,3,3,0,0,0,.95-.14l.05,0v0a2.29,2.29,0,0,0,.08-.76v-.19c0-.56,0-1.11-.07-1.66a17.82,17.82,0,0,1-.05-1.94c0-.39,0-.78,0-1.16,0-.18,0-.35,0-.52V27.28a.81.81,0,0,0-.26-.73h0a1,1,0,0,0-.35-.06h-.57a.74.74,0,0,0-.34.07l0,0v0a2.64,2.64,0,0,0-.18.38,1.82,1.82,0,0,1-.34.59,2.59,2.59,0,0,0-.78-.83,3.21,3.21,0,0,0-1.74-.46Zm.28,8.33a2.23,2.23,0,0,1-1.94-1.3,3.58,3.58,0,0,1-.23-.68,5,5,0,0,1,.14-3,2.18,2.18,0,0,1,1.33-1.41,1.94,1.94,0,0,1,.71-.13,2.06,2.06,0,0,1,1.76,1.06,2.13,2.13,0,0,1,.31,1.09v1.05c0,.11,0,.23,0,.34a4.56,4.56,0,0,1-.11,1.34,2.08,2.08,0,0,1-1.56,1.59,1.52,1.52,0,0,1-.42.06Z"/><path class="cls-1" d="M463.27,26.27l-.44,0a3.75,3.75,0,0,0-3.17,2,5.6,5.6,0,0,0-.66,2.34c0,.11,0,.22,0,.32a5.75,5.75,0,0,0,.08,1.85,4.83,4.83,0,0,0,3.37,3.62,3.28,3.28,0,0,0,1,.16,2.27,2.27,0,0,0,2.07-1.42.61.61,0,0,0,.05-.12l.06-.12,0,.11.09.71c.06.41.2.53.61.55h1.1a.69.69,0,0,0,.5-.22l0,0v0a5.1,5.1,0,0,0,.05-1.1v-.27c0-.38,0-.76-.07-1.14s-.07-.91-.06-1.36c0-1.11,0-2.23,0-3.32V27.33a1,1,0,0,0-.26-.78l0,0h0a4.89,4.89,0,0,0-.54,0,5.07,5.07,0,0,0-.66,0h-.05l0,0a2.5,2.5,0,0,0-.19.41,2.49,2.49,0,0,1-.33.6.47.47,0,0,1-.09-.12,2.43,2.43,0,0,0-1.51-1.08,3.21,3.21,0,0,0-.9-.12Zm.25,8.34a2.3,2.3,0,0,1-2-1.46,5.27,5.27,0,0,1,0-3.56,2.25,2.25,0,0,1,1.07-1.27,2.1,2.1,0,0,1,1-.25,2.14,2.14,0,0,1,2,1.55,2.59,2.59,0,0,1,.11.79c0,.21,0,.42,0,.62v.55a4.45,4.45,0,0,1-.11,1.36,2.09,2.09,0,0,1-1.59,1.62,1.74,1.74,0,0,1-.39,0Z"/><path class="cls-1" d="M491.44,26.28a4.05,4.05,0,0,0-3.71,2.25,6.43,6.43,0,0,0-.31,5.15A3.83,3.83,0,0,0,489.57,36a5,5,0,0,0,2.07.47,4.7,4.7,0,0,0,1.05-.12,3.28,3.28,0,0,0,2.53-2.18v0a.48.48,0,0,0,0-.46l0,0h0l-.23-.08c-.19-.06-.38-.12-.59-.17l-.26-.09a1.63,1.63,0,0,0-.54-.12h-.1l0,0a1,1,0,0,0-.21.37.35.35,0,0,1-.06.14,1.42,1.42,0,0,1-1.26.91,1.77,1.77,0,0,1-.82-.22,3.35,3.35,0,0,1-1.62-1.93,1.25,1.25,0,0,1-.1-.67h5.9l0-.05a1.11,1.11,0,0,0,.15-.68V31a9.62,9.62,0,0,0-.44-2.47l0-.06a2.76,2.76,0,0,0-1.37-1.68,3.7,3.7,0,0,0-1.26-.44,5.43,5.43,0,0,0-.88-.08Zm-2.06,4a1.4,1.4,0,0,1,.16-.66,2.25,2.25,0,0,1,2-1.38,1.69,1.69,0,0,1,.38,0,1.5,1.5,0,0,1,1,.73,1.65,1.65,0,0,1,.16,1.27Z"/><path class="cls-1" d="M527.09,26.28v0h0a3,3,0,0,0-2.09.89,3,3,0,0,0-.65.9,1.88,1.88,0,0,1-.05-.47c0-.09,0-.17,0-.26a.78.78,0,0,0-.72-.8,2.57,2.57,0,0,0-.5-.05l-.47,0a.42.42,0,0,0-.33.24v.11c0,.06,0,.12,0,.19v2.43c0,.83,0,1.66,0,2.48v3.55a.65.65,0,0,0,.24.64l0,0h1a7.25,7.25,0,0,0,.86-.05h0l0,0a.91.91,0,0,0,.12-.53v-.12c0-.61,0-1.23,0-1.83s-.06-.94-.06-1.41a7.86,7.86,0,0,1,.36-2.69,1.81,1.81,0,0,1,.57-.86,1.69,1.69,0,0,1,1.08-.41,1.31,1.31,0,0,1,1.28.94,3.2,3.2,0,0,1,.19.69,12.3,12.3,0,0,1,.06,3.09v.17c0,.84-.06,1.7,0,2.56a.57.57,0,0,0,.16.42h.05a6.68,6.68,0,0,0,1.14.15,2,2,0,0,0,.84-.19l.06,0V36a.31.31,0,0,1,0-.1c0-.07,0-.13,0-.19V29.19a2.55,2.55,0,0,0-.06-.59,2.81,2.81,0,0,0-2.05-2.18,3.65,3.65,0,0,0-1-.14Z"/><path class="cls-1" d="M441.72,26.29a2.91,2.91,0,0,0-2.32,1.13c-.13.16-.24.33-.37.51l0,.07,0-.09c0-.23-.06-.44-.08-.65a.73.73,0,0,0-.62-.7,2.68,2.68,0,0,0-.59-.06,3.32,3.32,0,0,0-.43,0,.43.43,0,0,0-.32.15.5.5,0,0,0-.07.37,5.16,5.16,0,0,1,0,.79V35.4a1.34,1.34,0,0,0,.14.73l0,0h.06l.92,0a8,8,0,0,0,.88,0H439l0,0a1.43,1.43,0,0,0,.18-1s0-.07,0-.11c0-.26,0-.53-.05-.79a19.82,19.82,0,0,1,0-3.36,4.28,4.28,0,0,1,.61-2,1.62,1.62,0,0,1,1.41-.68h0a1.37,1.37,0,0,1,1.26,1,6.79,6.79,0,0,1,.27,2.39l0,.4c0,.13,0,.25,0,.38s0,.41,0,.6a11.67,11.67,0,0,1-.07,1.32,5.44,5.44,0,0,0,0,.9,2.44,2.44,0,0,1,0,.27.79.79,0,0,0,.23.6l0,0h0l.53.05a4.62,4.62,0,0,0,.64.06,1.51,1.51,0,0,0,.75-.17h0l0,0a1,1,0,0,0,.09-.45V34.17c0-1.47,0-3,0-4.48a5,5,0,0,0-.17-1.32,2.84,2.84,0,0,0-2.43-2,3.12,3.12,0,0,0-.52,0Z"/><path class="cls-1" d="M501.07,26.24a5,5,0,0,0-2.66.78,3.43,3.43,0,0,0-1.05,1,2.33,2.33,0,0,0-.28,2,2.44,2.44,0,0,0,1.33,1.6,8.66,8.66,0,0,0,1.15.37l.32.08a12.21,12.21,0,0,1,1.18.34,1.89,1.89,0,0,1,.81.47,1.16,1.16,0,0,1,.33,1,1,1,0,0,1-.54.68,1.92,1.92,0,0,1-1,.24,2,2,0,0,1-1.86-1.1l0-.05a.5.5,0,0,0-.27-.32h-.07l-.21.05-.61.16-.27.09a.69.69,0,0,0-.48.94,1.35,1.35,0,0,0,.14.36,2.53,2.53,0,0,0,1.3,1.19,4.43,4.43,0,0,0,1.79.34,7.28,7.28,0,0,0,.78,0,5,5,0,0,0,2.69-1.06,2.17,2.17,0,0,0,.87-2.41,2.25,2.25,0,0,0-1.34-1.68l-.4-.17-.67-.26-.3-.12a12.56,12.56,0,0,1-1.52-.64,2.39,2.39,0,0,1-.67-.45.73.73,0,0,1-.07-1.11,1.31,1.31,0,0,1,1.07-.5,1.56,1.56,0,0,1,.6.11,1.69,1.69,0,0,1,1,1.16l0,.07h.29a6.4,6.4,0,0,0,1.69-.3l.08,0v-.08a2.57,2.57,0,0,0-1.87-2.52,5.29,5.29,0,0,0-1.34-.17Z"/><path class="cls-1" d="M454.73,24.23h-.08l-.32,0-.68,0a2.15,2.15,0,0,0-1,.26l-.05,0v.05a2.82,2.82,0,0,0,0,.93,1.41,1.41,0,0,1,0,.54.77.77,0,0,0,0,.15.25.25,0,0,1-.28.24h-.59a.43.43,0,0,0-.47.4,1.09,1.09,0,0,0,0,.18,3.11,3.11,0,0,0,.05,1.1v0l0,0a.57.57,0,0,0,.29.09.83.83,0,0,0,.3-.07l.09,0a1,1,0,0,1,.26-.05c.14,0,.31,0,.42.38a1.57,1.57,0,0,1,.1.42,18.66,18.66,0,0,1-.05,2.28c0,.16,0,.32-.05.47a10.84,10.84,0,0,0-.1,1.89,2.89,2.89,0,0,0,2.23,2.79,4,4,0,0,0,.91.11,4.15,4.15,0,0,0,1.56-.32l.13-.05a1,1,0,0,0,.54-.35l0,0v0c-.05-.2-.09-.42-.13-.63a10.62,10.62,0,0,0-.25-1l0-.12-.11.06-.18.1-.35.19a2.53,2.53,0,0,1-.56.23,1.76,1.76,0,0,1-.31,0,.86.86,0,0,1-.8-.52,3.34,3.34,0,0,1-.2-.51,5.65,5.65,0,0,1-.2-1.57V31.5a10.07,10.07,0,0,0-.08-1.73,2.88,2.88,0,0,1,0-.6.7.7,0,0,1,.63-.74,3,3,0,0,1,.74-.09,3.77,3.77,0,0,1,.66.06l.22,0a.67.67,0,0,0,.53-.25l0,0v0a4.91,4.91,0,0,0,0-1.38v0l0,0a.68.68,0,0,0-.47-.17h-1.24a2.11,2.11,0,0,1-.36,0,.63.63,0,0,1-.61-.68c0-.14,0-.28,0-.41s0-.21,0-.32v-.22a1.38,1.38,0,0,0,0-.53l0-.08Z"/><path class="cls-1" d="M507.36,26.46h0a3.6,3.6,0,0,0-.78.08h0l0,0a.85.85,0,0,0-.11.51v1.31a26.07,26.07,0,0,1-.08,2.79c-.08.76-.13,1.54-.18,2.3v.2a8.47,8.47,0,0,0,.09,2c0,.28.15.53.52.54h.69a2.91,2.91,0,0,0,1.13-.19l.06,0V36c.07-.56.06-8.93,0-9.43v-.08h-.09l-.55,0-.61,0Z"/><path class="cls-1" d="M448.27,26.46h0a3.77,3.77,0,0,0-.79.08h-.05l0,0,0,.07a.26.26,0,0,0-.05.12c0,.18,0,.33,0,.47,0,.34,0,.67,0,1a35,35,0,0,1-.14,4,26.63,26.63,0,0,0-.09,3,2.15,2.15,0,0,0,.12.7.46.46,0,0,0,.43.35h.75a2.6,2.6,0,0,0,1.1-.2l0,0V36s0-.06,0-.09a1.11,1.11,0,0,0,0-.19V26.89a.39.39,0,0,0-.17-.37l0,0h0l-.5,0-.58,0Z"/><path class="cls-1" d="M448.48,22.12h-.05a1.24,1.24,0,0,0-1.34,1.33,1.61,1.61,0,0,0,.44,1.19,1.34,1.34,0,0,0,.92.38h0a1.37,1.37,0,0,0,1.43-1.4,1.52,1.52,0,0,0-.43-1.08,1.42,1.42,0,0,0-1-.42Z"/><path class="cls-1" d="M507.55,22.11v0h-.06a1.23,1.23,0,0,0-1.3,1.37A1.37,1.37,0,0,0,507.52,25h0a1.51,1.51,0,0,0,1.1-.45,1.39,1.39,0,0,0,.39-1,1.54,1.54,0,0,0-1.46-1.49Z"/><path class="cls-1" d="M6.61,29a3.36,3.36,0,0,0-3.35,4.25A3.17,3.17,0,0,0,6,35.71a4,4,0,0,0,2.28-.43,2,2,0,0,0,1-1.13A4.34,4.34,0,0,0,9.56,33a3.78,3.78,0,0,0-.79-2.91A2.48,2.48,0,0,0,6.61,29Z"/><path class="cls-1" d="M39.58,35.26a4.53,4.53,0,0,0,.79-.07A3.38,3.38,0,0,0,42.31,30a2.57,2.57,0,0,0-1.77-1.17,5,5,0,0,0-1.59,0,2.29,2.29,0,0,0-2,1.56,4.17,4.17,0,0,0-.19,2.32A2.8,2.8,0,0,0,39.58,35.26Z"/><path class="cls-1" d="M14.67,23.69a4.44,4.44,0,0,0,2.12-.46A2.22,2.22,0,0,0,18,21.7a3.29,3.29,0,0,0,0-1.43,3.42,3.42,0,0,0-6.09-1.18A3.22,3.22,0,0,0,11.46,21a2.71,2.71,0,0,0,1.87,2.47A4.36,4.36,0,0,0,14.67,23.69Z"/><path class="cls-1" d="M30.57,17.5a3.54,3.54,0,0,0-1.64.33,2.89,2.89,0,0,0-1.75,3,3.52,3.52,0,0,0,4.69,2.74,2.88,2.88,0,0,0,2.06-2.44,3.15,3.15,0,0,0-1.18-3A3.27,3.27,0,0,0,30.57,17.5Z"/><path class="cls-1" d="M26.15,36.86a2,2,0,0,1-.77.52,5.29,5.29,0,0,1-2.92.29A2.8,2.8,0,0,1,20.15,35a5.24,5.24,0,0,1,.2-1.67c.36-1.17,1-1.73,2.55-2a6.28,6.28,0,0,1,.7,0c.49.05.9,0,1.31.12a2.8,2.8,0,0,1,2.3,2.47A4,4,0,0,1,26.15,36.86Z"/><path class="cls-2" d="M38.66,36.81a4,4,0,0,1-2.92-2.12,5.39,5.39,0,0,1-.68-3.41,5.3,5.3,0,0,1,.37-1.62,3.58,3.58,0,0,1,2.19-1.89c.3-.12.62-.19,1-.3a15.84,15.84,0,0,0-4-4c-.23.29-.42.55-.63.79a3.87,3.87,0,0,1-2.59,1.34,6.66,6.66,0,0,1-1.34,0A5,5,0,0,1,27,24.25a4.61,4.61,0,0,1-1.4-4.43c0-.08.06-.16,0-.24a17.31,17.31,0,0,0-6.08.21c0,.2.1.41.14.63a4,4,0,0,1,0,1.5,4.56,4.56,0,0,1-1.93,2.72,3.49,3.49,0,0,1-1.16.57,6.54,6.54,0,0,1-2.71.24,3.72,3.72,0,0,1-2.53-1.36L11,23.64a10.5,10.5,0,0,0-2.68,4.23.43.43,0,0,0,.24.18,3,3,0,0,1,1.09.77A6.94,6.94,0,0,1,11,31a3.77,3.77,0,0,1,.33,1.93A5.38,5.38,0,0,1,10,36,3.76,3.76,0,0,1,7.56,37.4a.21.21,0,0,0-.18.11c0,.12.08.21.14.3a6.78,6.78,0,0,0,2.55,2.26,19,19,0,0,0,6.2,2c.91.14,1.82.26,2.73.33l2.49.19c.93.08,1.86.12,2.8.16a26,26,0,0,0,3.53,0c.93-.09,1.86-.18,2.79-.33a15.2,15.2,0,0,0,3.91-1.17,10.51,10.51,0,0,0,3.6-2.69,8.26,8.26,0,0,0,1.05-1.55C39,36.88,38.82,36.83,38.66,36.81Zm-10.11,0a3.78,3.78,0,0,1-1.38,1.61,6,6,0,0,1-3.43,1.3,5.18,5.18,0,0,1-3.14-.91,5.63,5.63,0,0,1-1.45-1.43,4.35,4.35,0,0,1-.78-2.72,5.27,5.27,0,0,1,.6-2.58,4.27,4.27,0,0,1,2.42-2,7.36,7.36,0,0,1,2.18-.4,5.1,5.1,0,0,1,1.29.14,14.84,14.84,0,0,1,1.45.4,3.42,3.42,0,0,1,1.94,1.66,6.15,6.15,0,0,1,.7,2.25A5.58,5.58,0,0,1,28.55,36.85Z"/><path class="cls-1" d="M344.92,28.7a3.45,3.45,0,0,0-3.45,4.37,3.25,3.25,0,0,0,2.77,2.52,4.09,4.09,0,0,0,2.34-.44A2,2,0,0,0,347.67,34a4.55,4.55,0,0,0,.29-1.21,3.93,3.93,0,0,0-.81-3A2.58,2.58,0,0,0,344.92,28.7Z"/><path class="cls-1" d="M383.7,35.14a3.77,3.77,0,0,0,.8-.07,3.38,3.38,0,0,0,1.94-5.15,2.6,2.6,0,0,0-1.77-1.16,5,5,0,0,0-1.59,0,2.3,2.3,0,0,0-2,1.57,4.08,4.08,0,0,0-.19,2.32A2.78,2.78,0,0,0,383.7,35.14Z"/><path class="cls-1" d="M350.65,21.4a4.63,4.63,0,0,0,2.23-.48,2.32,2.32,0,0,0,1.27-1.61,3.3,3.3,0,0,0,0-1.5,3.59,3.59,0,0,0-6.4-1.24,3.3,3.3,0,0,0-.45,2,2.87,2.87,0,0,0,2,2.61A4.7,4.7,0,0,0,350.65,21.4Z"/><path class="cls-1" d="M371.93,15.41a3.8,3.8,0,0,0-1.73.35,3,3,0,0,0-1.84,3.2,3.72,3.72,0,0,0,4.95,2.9,3.06,3.06,0,0,0,2.18-2.58,3.35,3.35,0,0,0-1.25-3.16A3.44,3.44,0,0,0,371.93,15.41Z"/><path class="cls-1" d="M366.71,37.35a2.22,2.22,0,0,1-.9.61,6.17,6.17,0,0,1-3.4.35,3.27,3.27,0,0,1-2.69-3.09,6.11,6.11,0,0,1,.23-1.94c.43-1.36,1.14-2,3-2.3a6.49,6.49,0,0,1,.82-.05c.57.06,1.05.05,1.53.14A3.29,3.29,0,0,1,368,34,4.67,4.67,0,0,1,366.71,37.35Z"/><circle class="cls-1" cx="346.94" cy="32.21" r="1.69"/><circle class="cls-1" cx="370.62" cy="21.13" r="1.47"/><path class="cls-1" d="M379,30.91a1.3,1.3,0,1,0,0,2.6l3.08.2v-3Z"/><path class="cls-1" d="M354.75,20.37l-1.35-1.9L351,20.85l2,1.42a1.23,1.23,0,0,0,.86.34,1.3,1.3,0,0,0,.89-2.24Z"/><path class="cls-2" d="M378.86,34.79a2.64,2.64,0,1,1,0-5.26,2.59,2.59,0,0,1,.63.07,8.53,8.53,0,0,0-.88-2.13,1.33,1.33,0,0,0-.14-.19,16.05,16.05,0,0,0-3.83-3.84,6.9,6.9,0,0,0-.82-.68,3.7,3.7,0,0,1-3.22,1.81,3.55,3.55,0,0,1-3.67-3.41,3.12,3.12,0,0,1,.26-1.26c-.95-.23-1.58-.32-1.58-.32a17.31,17.31,0,0,0-6.08.21,11.7,11.7,0,0,0-3,.68,2.89,2.89,0,0,1-.71,3.73c-1.2.75-2.92.16-3.89-1.3a6.63,6.63,0,0,0-1,.74,11.52,11.52,0,0,0-2.56,3.77h0s-.21.48-.48,1.19a4.38,4.38,0,0,1,2.7,3.88,4.56,4.56,0,0,1-3.68,4.23,5.5,5.5,0,0,0,.47.94l.11.16s0,0,.05.07a.83.83,0,0,0,.08.12l.08.09a7.11,7.11,0,0,0,2.34,2,19,19,0,0,0,6.2,2c.91.14,1.82.26,2.73.33l2.49.19c.93.08,1.86.12,2.8.16a26,26,0,0,0,3.53,0c.93-.09,1.86-.18,2.79-.33a15.2,15.2,0,0,0,3.91-1.17,10.51,10.51,0,0,0,3.6-2.69,8.26,8.26,0,0,0,1.05-1.55,7.53,7.53,0,0,0,.69-2.31A2.77,2.77,0,0,1,378.86,34.79Zm-9.35,2.48a4.6,4.6,0,0,1-1.65,1.93,7.2,7.2,0,0,1-4.11,1.55A6.13,6.13,0,0,1,360,39.66,6.74,6.74,0,0,1,358.26,38a5.12,5.12,0,0,1-.93-3.26,6.23,6.23,0,0,1,.71-3.08,5.16,5.16,0,0,1,2.9-2.44,8.64,8.64,0,0,1,2.61-.47,5.73,5.73,0,0,1,1.54.17c.59.12,1.16.3,1.73.47a4.13,4.13,0,0,1,2.33,2A7.32,7.32,0,0,1,370,34,6.52,6.52,0,0,1,369.51,37.27Z"/></g></svg>