<svg xmlns="http://www.w3.org/2000/svg" version="1.1"  width="500px" height="500px"><path fill="%23ff0000" d="M161.56 390c-23.75 4.13-46.2-11.67-70.31-20.18-8.47-3-16.19-10.45-20.74-19.95-14.15-29.6-31.6-58-42.45-88.67-7.93-22.45-13.71-46-21.58-68.69C3 182.42 19.54 158.44 30 156.91c2.37-.34 5.08 1.2 7.56 2.11 15 5.46 23 17.09 26.16 31.89 9 42.15 23.84 82.08 43 120.66 6.44 13 14.69 19.32 29.36 18.76a164.12 164.12 0 0145.37 4.28c20.43 4.93 40.75-3.42 61.05-6.62 4.38-.69 8.62-2.18 13-3.12 14.79-3.19 25.93-10.17 33.15-24.6a218.17 218.17 0 0015.32-40c11.03-40.27 21.47-80.85 32.5-121.21 6-22 15.95-41.86 33-57.71 6.16-5.71 13.65-11.86 20.78-11.71 20.05.41 39.16-5.46 58.92-6.35 17-.77 29.53 6.64 39.79 19.05 11.27 13.64 5.08 33.13-12.71 34.57-13.58 1.09-25.88 6.6-39.67 6.84-26.05.45-43.93 14-51.19 39.64-7.52 26.55-14.16 53.36-22 79.83-10.39 35.12-20.42 70.19-42.14 101-16.26 23.07-38.63 37.37-64.39 39-30.44 1.78-60.77 6.86-95.3 6.78z M227.62 44.58c2.53 18.87-6.26 38.57-6 59.5.23 18.27 8.2 29 23.76 34.82 5.22 2 9.93 3.83 13.86 7.63 8.11 7.83 10 18.19 2.28 26.35q-28.84 30.63-59.46 59.57c-8.81 8.35-22.84 7.69-31.84-.76-19.79-18.58-35.37-40.67-48.09-64.43-8.88-16.59-1-31.39 17.82-32.75s26.57-9 29.06-28c1.38-10.47 4.62-21.08 3.69-31.69-1.72-19.6 5.8-37.05 11.64-54.73C189.68 4 205.85-3.1 217.55 3.41c5.94 3.31 10.07 7.51 10.07 14.72-.01 8.15 0 16.29 0 26.45zM275.55 416.8c22.78.12 43.59 17.23 44.08 35.59.58 21.75-22.95 46.87-43.66 46.61-23.34-.3-48.23-21.65-47-43.08.55-9.84 4.68-20.09 12.53-28.82 10.2-11.38 22.38-9.83 34.05-10.3zM104.55 416.77c25-2.53 46.26 18.72 46.4 38.77.15 19.74-23.11 41.78-44.87 42.93s-42-18.21-42-40.27 18.74-41.31 40.47-41.43z"/></svg>